<?xml version="1.0" encoding="utf-8"?>
<!-- Generator: Adobe Illustrator 23.0.1, SVG Export Plug-In . SVG Version: 6.00 Build 0)  -->
<svg version="1.1" id="Layer_1" xmlns="http://www.w3.org/2000/svg" xmlns:xlink="http://www.w3.org/1999/xlink" x="0px" y="0px"
	 viewBox="0 0 66 64.9" style="enable-background:new 0 0 66 64.9;" xml:space="preserve">
<style type="text/css">
	.st0{fill:#222222;}
	.st1{opacity:0.5;fill:none;stroke:#712099;stroke-miterlimit:10;}
</style>
<g>
	<g>
		<path class="st0" d="M30.7,45.4c-0.1,0.3,0.2,0.6,0.5,0.6h2c0.3,0,0.5-0.2,0.5-0.4l2.8-11.2h-3L30.7,45.4z"/>
	</g>
	<g>
		<path class="st0" d="M37.9,44c0,0.3,0.3,0.5,0.5,0.5h2c0.3,0,0.5-0.3,0.5-0.5v-9.6h-3V44z"/>
	</g>
	<g>
		<path class="st0" d="M45.3,34.4h-3l2.8,11.2c0.1,0.2,0.3,0.4,0.5,0.4h2c0.4,0,0.6-0.3,0.5-0.6L45.3,34.4z"/>
	</g>
	<g>
		<path class="st0" d="M23.1,24.1c1.9,0,3.4-2.1,3.4-3.9c0-1.9-1.5-3.4-3.4-3.4s-3.4,1.5-3.4,3.4C19.7,21.9,21.2,24.1,23.1,24.1z"/>
	</g>
	<g>
		<path class="st0" d="M25.4,24.8L25.4,24.8C25.4,24.8,25.4,24.8,25.4,24.8C25.4,24.8,25.4,24.8,25.4,24.8z"/>
	</g>
	<g>
		<path class="st0" d="M33.8,28.6c1.1,0,1.9-0.8,1.9-1.9c0-1.1-0.9-1.9-1.9-1.9c-6.6,0-8.1,0-8.4,0c0,0,0,0,0.1,0h-0.1
			c0,0,0,0-0.1,0l0,0c-0.2,0-0.4,0.1-0.5,0.3c-0.4,0.8-0.9,1.6-1.5,2.3h-0.6c-0.6-0.7-1.1-1.5-1.5-2.3c-0.1-0.2-0.3-0.3-0.5-0.3h-2
			c-1.5,0-2.8,1.3-2.8,2.8v9c0,0.3,0.2,0.5,0.5,0.5h2.3v11.2c0,0.3,0.2,0.5,0.5,0.5h2.4c0.3,0,0.5-0.2,0.5-0.5l0.5-8.8h0.6l0.5,8.7
			c0,0.3,0.2,0.5,0.5,0.5h2.4c0.3,0,0.5-0.2,0.5-0.5V30.3c0-0.9,0.6-1.6,1.6-1.7C29,28.6,30.6,28.6,33.8,28.6z"/>
	</g>
	<g>
		<path class="st0" d="M49.4,19.1h-8.5v-1.3c0-0.3-0.2-0.5-0.5-0.5h-2c-0.3,0-0.5,0.3-0.5,0.5v1.3h-8.4c-0.3,0-0.5,0.2-0.5,0.5v4.2
			h5c1.7,0,3,1.3,3,2.9s-1.4,2.9-3,2.9c-4.9,0-4.8-0.1-5,0v3.2c0,0.3,0.2,0.5,0.5,0.5h20c0.3,0,0.5-0.2,0.5-0.5V19.6
			C49.9,19.3,49.6,19.1,49.4,19.1z M47.4,30.3h-8.6c-0.3,0-0.5-0.2-0.5-0.5c0-0.3,0.2-0.5,0.5-0.5h8.6c0.3,0,0.5,0.3,0.5,0.5
			C47.9,30,47.6,30.3,47.4,30.3z M47.4,26.7h-9.1c-0.3,0-0.5-0.2-0.5-0.5s0.3-0.5,0.5-0.5h9.1c0.3,0,0.5,0.2,0.5,0.5
			S47.6,26.7,47.4,26.7z M47.4,23.2H35c-0.3,0-0.5-0.3-0.5-0.5c0-0.3,0.3-0.5,0.5-0.5h12.4c0.3,0,0.5,0.2,0.5,0.5
			C47.9,22.9,47.6,23.2,47.4,23.2z"/>
	</g>
</g>
<polygon class="st1" points="33,2.3 6.6,17.5 6.6,48 33,63.3 59.4,48 59.4,17.5 "/>
</svg>
