<?xml version="1.0" encoding="utf-8"?>
<!-- Generator: Adobe Illustrator 23.0.1, SVG Export Plug-In . SVG Version: 6.00 Build 0)  -->
<svg version="1.1" id="Layer_1" xmlns="http://www.w3.org/2000/svg" xmlns:xlink="http://www.w3.org/1999/xlink" x="0px" y="0px"
	 viewBox="0 0 66 64.9" style="enable-background:new 0 0 66 64.9;" xml:space="preserve">
<style type="text/css">
	.st0{fill:#222222;}
	.st1{opacity:0.5;fill:none;stroke:#712099;stroke-miterlimit:10;}
</style>
<g>
	<g>
		<path class="st0" d="M128.4,43.9c-0.1,0.3,0.2,0.6,0.5,0.6h2c0.3,0,0.5-0.2,0.5-0.4l2.8-11.2h-3L128.4,43.9z"/>
	</g>
	<g>
		<path class="st0" d="M135.6,42.5c0,0.3,0.3,0.5,0.5,0.5h2c0.3,0,0.5-0.3,0.5-0.5v-9.6h-3V42.5z"/>
	</g>
	<g>
		<path class="st0" d="M143.1,32.9h-3l2.8,11.2c0.1,0.2,0.3,0.4,0.5,0.4h2c0.4,0,0.6-0.3,0.5-0.6L143.1,32.9z"/>
	</g>
	<g>
		<path class="st0" d="M120.9,22.6c1.9,0,3.4-2.1,3.4-3.9c0-1.9-1.5-3.4-3.4-3.4s-3.4,1.5-3.4,3.4C117.5,20.5,119,22.6,120.9,22.6z"
			/>
	</g>
	<g>
		<path class="st0" d="M123.1,23.3L123.1,23.3C123.2,23.3,123.2,23.3,123.1,23.3C123.2,23.3,123.1,23.3,123.1,23.3z"/>
	</g>
	<g>
		<path class="st0" d="M131.6,27.1c1.1,0,1.9-0.8,1.9-1.9s-0.9-1.9-1.9-1.9c-6.6,0-8.1,0-8.4,0c0,0,0,0,0.1,0h-0.1c0,0,0,0-0.1,0
			l0,0c-0.2,0-0.4,0.1-0.5,0.3c-0.4,0.8-0.9,1.6-1.5,2.3h-0.6c-0.6-0.7-1.1-1.5-1.5-2.3c-0.1-0.2-0.3-0.3-0.5-0.3h-2
			c-1.5,0-2.8,1.3-2.8,2.8v9c0,0.3,0.2,0.5,0.5,0.5h2.3v11.2c0,0.3,0.2,0.5,0.5,0.5h2.4c0.3,0,0.5-0.2,0.5-0.5l0.5-8.8h0.6l0.5,8.7
			c0,0.3,0.2,0.5,0.5,0.5h2.4c0.3,0,0.5-0.2,0.5-0.5V28.8c0-0.9,0.6-1.6,1.6-1.7C126.8,27.1,128.4,27.1,131.6,27.1z"/>
	</g>
	<g>
		<path class="st0" d="M147.2,17.6h-8.5v-1.3c0-0.3-0.2-0.5-0.5-0.5h-2c-0.3,0-0.5,0.3-0.5,0.5v1.3h-8.4c-0.3,0-0.5,0.2-0.5,0.5v4.2
			h5c1.7,0,3,1.3,3,2.9s-1.4,2.9-3,2.9c-4.9,0-4.8-0.1-5,0v3.2c0,0.3,0.2,0.5,0.5,0.5h20c0.3,0,0.5-0.2,0.5-0.5V18.1
			C147.7,17.8,147.4,17.6,147.2,17.6z M145.2,28.8h-8.6c-0.3,0-0.5-0.2-0.5-0.5c0-0.3,0.2-0.5,0.5-0.5h8.6c0.3,0,0.5,0.3,0.5,0.5
			C145.7,28.6,145.4,28.8,145.2,28.8z M145.2,25.3H136c-0.3,0-0.5-0.2-0.5-0.5s0.3-0.5,0.5-0.5h9.1c0.3,0,0.5,0.2,0.5,0.5
			S145.4,25.3,145.2,25.3z M145.2,21.7h-12.4c-0.3,0-0.5-0.3-0.5-0.5c0-0.3,0.3-0.5,0.5-0.5h12.4c0.3,0,0.5,0.2,0.5,0.5
			C145.7,21.5,145.4,21.7,145.2,21.7z"/>
	</g>
</g>
<polygon class="st1" points="33,1.9 6.6,17.2 6.6,47.7 33,62.9 59.4,47.7 59.4,17.2 "/>
<g>
	<polygon class="st0" points="25.2,41.6 25.2,45.2 27.6,45.2 38.4,45.2 40.8,45.2 40.8,41.6 	"/>
	<path class="st0" d="M31.2,36.2c0-0.3-0.3-0.6-0.6-0.6c-0.3,0-0.5,0.2-0.6,0.4l0,0L29,39.2h-3.2c-0.3,0-0.6,0.3-0.6,0.6
		c0,0.3,0.3,0.6,0.6,0.6h4l1.3-4l0,0C31.2,36.3,31.2,36.2,31.2,36.2z"/>
	<g>
		<path class="st0" d="M27,35.6h-5.2l-1.5-4.1l0,0c-0.2-0.7-0.9-1.3-1.7-1.3c-0.3,0-0.6,0.1-0.8,0.2l0,0c-4.1,2.1-6.4,6.7-6.4,13
			c0,1,0.8,1.8,1.8,1.8h5.4v6c0,1,0.8,1.8,1.8,1.8s1.8-0.8,1.8-1.8v-7.8c0-1-0.8-1.8-1.8-1.8h-5.3c0.2-2.6,1-5.4,3-7.1l1.8,2.8l0,0
			c0.2,0.4,0.6,0.7,1.1,0.7h6c0.7,0,1.2-0.5,1.2-1.2S27.7,35.6,27,35.6z"/>
		<circle class="st0" cx="23.4" cy="29" r="2.7"/>
	</g>
	<path class="st0" d="M40.2,39.2H37L36,36l0,0c-0.1-0.2-0.3-0.4-0.6-0.4c-0.3,0-0.6,0.3-0.6,0.6c0,0.1,0,0.1,0,0.2l0,0l1.3,4h4
		c0.3,0,0.6-0.3,0.6-0.6S40.5,39.2,40.2,39.2z"/>
	<circle class="st0" cx="42.6" cy="29" r="2.7"/>
	<path class="st0" d="M48.2,30.4L48.2,30.4c-0.2-0.1-0.5-0.2-0.8-0.2c-0.8,0-1.5,0.5-1.7,1.3l0,0l-1.5,4.1H39
		c-0.7,0-1.2,0.5-1.2,1.2S38.3,38,39,38h6c0.5,0,0.9-0.3,1.1-0.7l0,0l1.8-2.8c2,1.7,2.8,4.5,3,7.1h-5.3c-1,0-1.8,0.8-1.8,1.8v7.8
		c0,1,0.8,1.8,1.8,1.8c1,0,1.8-0.8,1.8-1.8v-6h5.4c1,0,1.8-0.8,1.8-1.8C54.5,37.1,52.3,32.4,48.2,30.4z"/>
	<path class="st0" d="M33,24.5c-3.5,0-6.3-2.8-6.3-6.3S29.5,12,33,12s6.3,2.8,6.3,6.3S36.5,24.5,33,24.5z M33,13.2
		c-2.8,0-5.1,2.3-5.1,5.1s2.3,5.1,5.1,5.1s5.1-2.3,5.1-5.1S35.8,13.2,33,13.2z"/>
	<path class="st0" d="M36,15.8c0-0.3-0.3-0.6-0.6-0.6c-0.2,0-0.3,0.1-0.4,0.2l-1.4,1.4v-2.1c0-0.3-0.3-0.6-0.6-0.6s-0.6,0.3-0.6,0.6
		v3.6c0,0.3,0.3,0.6,0.6,0.6c0.2,0,0.3-0.1,0.4-0.2l2.4-2.4C35.9,16.2,36,16,36,15.8z"/>
</g>
</svg>
